<mxfile host="app.diagrams.net" modified="2023-07-13T05:28:43.749Z" agent="Mozilla/5.0 (Macintosh; Intel Mac OS X 10_15_7) AppleWebKit/537.36 (KHTML, like Gecko) Chrome/114.0.0.0 Safari/537.36" version="21.6.1" etag="3kg4JQ9oz3VlPI1JRekQ" type="github">
  <diagram name="Page-1" id="YCoQRS25WpefOUwAPm3u">
    <mxGraphModel>
      <root>
        <mxCell id="0" />
        <mxCell id="1" parent="0" />
      </root>
    </mxGraphModel>
  </diagram>
</mxfile>
